<svg width="384pt" height="124pt" viewBox="0 0 384 124" xmlns="http://www.w3.org/2000/svg" xmlns:xlink="http://www.w3.org/1999/xlink"><g id="graph0" class="graph" transform="scale(1 1) rotate(0) translate(4 120)"><title>layout</title><polygon fill="none" stroke="none" points="-4,4 -4,-120 380,-120 380,4 -4,4"/><g id="node1" class="node"><title>sample</title><polygon fill="none" stroke="#000" points="-0.5,-0.5 -0.5,-115.5 376.5,-115.5 376.5,-0.5 -0.5,-0.5"/><text text-anchor="middle" x="188" y="-100.3" font-family="Times,serif" font-size="14">frame</text><polyline fill="none" stroke="#000" points="-0.5,-92.5 376.5,-92.5"/><text text-anchor="middle" x="24.5" y="-42.8" font-family="Times,serif" font-size="14">length</text><polyline fill="none" stroke="#000" points="49.5,-0.5 49.5,-92.5"/><text text-anchor="middle" x="213" y="-77.3" font-family="Times,serif" font-size="14">envelope</text><polyline fill="none" stroke="#000" points="49.5,-69.5 376.5,-69.5"/><text text-anchor="middle" x="69.5" y="-31.3" font-family="Times,serif" font-size="14">type</text><polyline fill="none" stroke="#000" points="89.5,-0.5 89.5,-69.5"/><text text-anchor="middle" x="233" y="-54.3" font-family="Times,serif" font-size="14">message</text><polyline fill="none" stroke="#000" points="89.5,-46.5 376.5,-46.5"/><text text-anchor="middle" x="120.5" y="-31.3" font-family="Times,serif" font-size="14">slots</text><polyline fill="none" stroke="#000" points="89.5,-23.5 151.5,-23.5"/><text text-anchor="middle" x="105" y="-8.3" font-family="Times,serif" font-size="14">S1</text><polyline fill="none" stroke="#000" points="120.5,-0.5 120.5,-23.5"/><text text-anchor="middle" x="136" y="-8.3" font-family="Times,serif" font-size="14">S2</text><polyline fill="none" stroke="#000" points="151.5,-0.5 151.5,-46.5"/><text text-anchor="middle" x="264" y="-31.3" font-family="Times,serif" font-size="14">fields</text><polyline fill="none" stroke="#000" points="151.5,-23.5 376.5,-23.5"/><text text-anchor="middle" x="186" y="-8.3" font-family="Times,serif" font-size="14">L1,L2,L3</text><polyline fill="none" stroke="#000" points="220.5,-0.5 220.5,-23.5"/><text text-anchor="middle" x="236" y="-8.3" font-family="Times,serif" font-size="14">F1</text><polyline fill="none" stroke="#000" points="251.5,-0.5 251.5,-23.5"/><text text-anchor="middle" x="267" y="-8.3" font-family="Times,serif" font-size="14">F2</text><polyline fill="none" stroke="#000" points="282.5,-0.5 282.5,-23.5"/><text text-anchor="middle" x="298" y="-8.3" font-family="Times,serif" font-size="14">F3</text><polyline fill="none" stroke="#000" points="313.5,-0.5 313.5,-23.5"/><text text-anchor="middle" x="329.5" y="-8.3" font-family="Times,serif" font-size="14">L4</text><polyline fill="none" stroke="#000" points="345.5,-0.5 345.5,-23.5"/><text text-anchor="middle" x="361" y="-8.3" font-family="Times,serif" font-size="14">F4</text></g></g></svg>